<svg version="1.1" xmlns="http://www.w3.org/2000/svg" xmlns:xlink="http://www.w3.org/1999/xlink" width="529.72437" height="623.02712" viewBox="0,0,529.72437,623.02712"><g transform="translate(-10.75,109.75)"><g data-paper-data="{&quot;isPaintingLayer&quot;:true}" fill="#9966ff" fill-rule="nonzero" stroke-linecap="butt" stroke-linejoin="miter" stroke-miterlimit="10" stroke-dasharray="" stroke-dashoffset="0" style="mix-blend-mode: normal"><path d="M93.84734,415.01874c-0.37099,-0.13666 -0.23433,-0.50764 -0.23433,-0.50764l0.03591,-0.09748c0.20843,-0.56582 0.44412,-1.12167 0.69149,-1.67159c5.56396,-0.38882 11.25269,-0.07106 16.83115,-0.07106c5.535,0 11.07001,0 16.60501,-0.00002c5.535,-0.00002 11.06999,-0.00016 16.60499,-0.0006c5.53474,-0.00044 11.06941,-0.00599 16.60415,-0.01836c5.54317,-0.01239 11.03203,-0.02294 16.56076,-0.43788c5.50216,-0.41295 11.07451,-1.11851 16.59177,-1.12831c5.535,-0.00984 11.07,-0.01968 16.605,-0.02952c5.51143,-0.00979 11.0442,-0.62437 16.54141,-1.01689c5.52113,-0.39422 11.0425,-0.78448 16.56412,-1.17178c5.52527,-0.38756 11.05964,-0.93818 16.59917,-0.94597c5.535,-0.00778 11.07,-0.01556 16.605,-0.02334c5.52954,-0.00777 11.02128,-0.5855 16.53112,-1.03662c5.55457,-0.45478 11.04292,-0.53184 16.61493,-0.5488c5.65296,-0.0172 10.85587,-0.39359 16.43198,-1.32842c5.55149,-0.9307 10.74935,-1.77499 16.02602,-3.75575c5.303,-1.99064 9.96225,-4.2811 14.8519,-7.13844c4.80617,-2.80854 8.82248,-6.39355 13.08914,-9.95755c3.74487,-4.90758 6.1809,-8.06993 7.35581,-14.16534c1.00919,-5.2357 0.26963,-11.16723 0.23671,-16.49899c-0.02002,-5.42948 -2.54587,-10.78941 -4.5767,-15.69615c-1.91952,-4.71707 -7.22976,-8.83935 -11.29955,-11.55766c-4.61669,-3.08361 -9.04179,-6.3881 -13.48985,-9.70932c-4.47201,-3.3391 -9.36145,-5.61957 -14.34462,-8.11834c-4.98184,-2.4981 -9.83119,-5.06062 -14.61191,-7.92617c-4.77342,-2.86118 -9.42381,-5.65627 -14.5018,-7.94027c-5.00626,-2.25173 -9.98233,-4.84445 -15.19444,-6.56847c-5.25499,-1.7382 -10.50998,-3.4764 -15.76497,-5.21461c-5.18129,-1.71697 -10.80393,-2.5681 -16.12431,-3.7967c-5.39366,-1.24552 -10.78199,-2.51314 -16.17049,-3.7808c-5.34795,-1.25813 -10.72938,-2.84749 -16.14832,-3.74588c-5.46022,-0.90681 -10.92043,-1.81363 -16.38065,-2.72045c-5.45836,-0.9065 -10.90175,-1.84283 -16.39235,-2.53037c-5.49212,-0.68773 -10.98422,-1.37545 -16.47634,-2.06318c-5.49597,-0.68821 -10.96566,-1.55602 -16.44217,-2.38411c-5.48973,-0.83009 -10.91993,-1.48589 -16.45441,-1.93073c-5.53635,-0.44499 -11.07297,-0.732 -16.53962,-1.72598c-5.44576,-0.99017 -10.89162,-1.97971 -16.3371,-2.97136c-5.44635,-0.9918 -10.925,-1.87797 -16.33365,-3.05848c-5.40072,-1.17878 -10.75937,-2.50141 -16.24853,-3.16882c-5.84481,-0.71066 -10.70016,-1.43777 -16.11843,-3.78387c-5.1504,-2.23012 -9.81522,-5.02313 -14.61539,-7.92567c-5.23198,-3.16363 -8.31007,-6.42416 -12.11436,-11.18902c-3.71112,-4.64912 -6.76055,-8.77791 -6.76055,-14.90121c0,-5.53501 -0.00005,-11.07002 0.00003,-16.60502c0.00008,-5.67114 0.33823,-10.96689 1.18502,-16.57542c0.81992,-5.43058 2.29456,-10.95578 4.22427,-16.10893c1.94037,-5.18162 3.9048,-10.34563 5.6571,-15.59414c1.75626,-5.26038 3.53421,-10.49391 5.48367,-15.68606c1.95107,-5.19643 4.05227,-10.30111 6.2289,-15.40692c2.17544,-5.10304 4.10308,-10.30741 6.13593,-15.46856c3.2266,-4.51703 6.32699,-9.18713 9.99351,-13.35619c3.65451,-4.15539 7.12697,-8.56821 11.295,-12.21225c4.16994,-3.64571 8.26136,-7.40309 12.63404,-10.80376c4.36947,-3.39818 8.73233,-6.80508 13.11118,-10.19115c4.38471,-3.3906 8.76702,-6.78434 13.15457,-10.17128c4.74924,-2.85772 9.50293,-5.70809 14.25456,-8.56184c4.73109,-2.84141 9.262,-6.05766 13.86149,-9.10777c4.60317,-3.05255 9.66686,-5.47574 14.52374,-8.10502c4.9517,-2.68061 10.03814,-4.51719 15.32605,-6.43734c5.24529,-1.90467 10.49167,-3.46617 15.8751,-4.93264c5.34539,-1.4561 10.69645,-2.86206 16.0713,-4.20542c5.37018,-1.34218 10.73982,-2.6864 16.11354,-4.01433c5.35295,-1.3228 10.73565,-2.9713 16.17585,-3.86747c5.4614,-0.89967 10.9228,-1.79932 16.3842,-2.69899c5.41779,-0.88986 11.10748,-0.91102 16.58393,-1.32516c5.54246,-0.41913 11.06436,-0.35876 16.62133,-0.35865c5.53517,0.0001 11.07032,0.00116 16.60548,0.00793c5.52923,0.00676 11.11172,-0.20909 16.62685,0.18935c5.52062,0.39884 11.04123,0.79768 16.56185,1.19653c5.52506,0.39917 11.01228,1.27525 16.50258,2.00755c5.48879,0.7321 10.97403,1.47391 16.45307,2.27593c5.48428,0.80279 10.96915,1.60167 16.45276,2.40904c5.35386,1.43459 10.70549,2.87747 16.05815,4.31654c5.38895,1.44882 10.60252,3.11097 15.85753,4.9876c5.21019,1.86062 10.40708,3.76518 15.64371,5.5501c5.4694,1.86426 10.0712,4.07528 15.0398,7.02166c4.47055,2.65348 9.91505,5.58979 14.88787,7.08164c4.5442,1.36326 9.08841,2.72652 13.63261,4.08978c0,0 0.37869,0.1136 0.26508,0.49228c-0.11361,0.37869 -0.49229,0.26508 -0.49229,0.26508c-4.5442,-1.36326 -9.08841,-2.72652 -13.63261,-4.08978c-5.03619,-1.51085 -10.53433,-4.47517 -15.06397,-7.15888c-4.92609,-2.92117 -9.46935,-5.10516 -14.89159,-6.95335c-5.24024,-1.78615 -10.44074,-3.69196 -15.65453,-5.55387c-5.23538,-1.86961 -10.42811,-3.52526 -15.7969,-4.96865c-5.33774,-1.43505 -10.67658,-2.86603 -16.01304,-4.30581c-5.4697,-0.79571 -10.9381,-1.60043 -16.4071,-2.40098c-5.47571,-0.80153 -10.95764,-1.54286 -16.44309,-2.27452c-5.47444,-0.73019 -10.94592,-1.60466 -16.45501,-2.00267c-5.52062,-0.39884 -11.04123,-0.79768 -16.56185,-1.19653c-5.49635,-0.39709 -11.06041,-0.18057 -16.57084,-0.1873c-5.53485,-0.00676 -11.06968,-0.00782 -16.60453,-0.00793c-5.53704,-0.0001 -11.03917,-0.06123 -16.56169,0.3564c-5.45162,0.41226 -11.12277,0.42589 -16.51502,1.31689c-5.4614,0.89967 -10.92281,1.79932 -16.38421,2.69899c-5.4194,0.89274 -10.78215,2.53715 -16.11468,3.8549c-5.37305,1.32776 -10.742,2.67181 -16.1115,4.01382c-5.36948,1.34201 -10.71516,2.74657 -16.05521,4.20121c-5.36279,1.46085 -10.58794,3.01562 -15.81305,4.91296c-5.25172,1.907 -10.30223,3.72749 -15.21949,6.38947c-4.83596,2.61796 -9.87987,5.02928 -14.46317,8.06865c-4.60934,3.05664 -9.15015,6.27915 -13.89138,9.12665c-4.73838,2.84578 -9.4746,5.69521 -14.2155,8.53679c-4.36948,3.38502 -8.74456,6.76284 -13.11704,10.14398c-4.37828,3.38563 -8.74056,6.79207 -13.10945,10.18981c-4.36068,3.39134 -8.44052,7.13916 -12.59902,10.77488c-4.14141,3.62077 -7.59038,8.01014 -11.22168,12.13915c-3.63222,4.13005 -6.66103,8.76329 -9.89249,13.21152c-1.98192,5.1523 -3.93851,10.32302 -6.10332,15.40113c-2.17211,5.09524 -4.26899,10.18912 -6.21601,15.37478c-1.94604,5.18303 -3.72072,10.40736 -5.47391,15.65852c-1.75532,5.25753 -3.72292,10.4305 -5.66662,15.62103c-1.91068,5.10235 -3.37105,10.57251 -4.18291,15.94968c-0.84117,5.57134 -1.17607,10.82369 -1.17615,16.45738c-0.00008,5.53501 -0.00004,11.07001 -0.00004,16.60501c0,5.93183 2.98821,9.90039 6.58776,14.40786c3.75766,4.70646 6.74204,7.88349 11.90558,11.00573c4.76998,2.88427 9.40284,5.66077 14.52044,7.87669c5.35171,2.31728 10.1227,3.02215 15.89968,3.72456c5.514,0.67043 10.89665,1.99713 16.32171,3.18122c5.39969,1.17855 10.86937,2.06292 16.30669,3.05308c5.44541,0.99164 10.89122,1.98117 16.3369,2.97133c5.44048,0.98921 10.95155,1.27289 16.46152,1.71576c5.55263,0.4463 11.00154,1.10427 16.50927,1.93708c5.46986,0.82709 10.9329,1.69397 16.4222,2.38135c5.49212,0.68773 10.98423,1.37545 16.47635,2.06318c5.50108,0.68885 10.95488,1.6267 16.42364,2.53493c5.46022,0.90681 10.92043,1.81363 16.38065,2.72044c5.43654,0.9044 10.8341,2.4939 16.19985,3.75621c5.38745,1.26742 10.77472,2.53479 16.16733,3.78007c5.34613,1.23455 10.98634,2.09667 16.19471,3.81643c5.25499,1.7382 10.50999,3.47641 15.76498,5.21461c5.23836,1.7327 10.23909,4.33502 15.27048,6.59805c5.10627,2.29671 9.78423,5.10623 14.58397,7.98318c4.76387,2.85546 9.59548,5.40823 14.55982,7.89755c5.02502,2.51975 9.95297,4.82389 14.46326,8.19158c4.437,3.31296 8.85077,6.60946 13.45596,9.68538c4.2322,2.8268 9.54522,7.04087 11.59098,11.91281c2.07738,5.01921 4.58999,10.44548 4.63678,15.99365c0.03326,5.38656 0.76873,11.36323 -0.25099,16.65354c-1.19893,6.22006 -3.7145,9.58278 -7.56092,14.56234c-4.29816,3.63351 -8.39712,7.25102 -13.2615,10.09359c-4.92576,2.87844 -9.63059,5.1906 -14.97296,7.19602c-5.32468,1.99878 -10.57251,2.85636 -16.17316,3.79531c-5.61613,0.94154 -10.86697,1.32196 -16.56031,1.33929c-5.55146,0.0169 -11.01882,0.09307 -16.55282,0.54617c-5.53103,0.45285 -11.04366,1.03146 -16.59453,1.03926c-5.535,0.00778 -11.07,0.01556 -16.605,0.02334c-5.52133,0.00776 -11.03782,0.55774 -16.54496,0.94403c-5.52129,0.38727 -11.04233,0.77751 -16.56313,1.17171c-5.51559,0.39382 -11.06644,1.00906 -16.59633,1.01889c-5.535,0.00984 -11.06999,0.01967 -16.60499,0.02951c-5.49777,0.00977 -11.05122,0.71461 -16.534,1.1261c-5.54784,0.41638 -11.05589,0.42767 -16.61817,0.4401c-5.5353,0.01237 -11.07054,0.01792 -16.60585,0.01837c-5.53501,0.00044 -11.07003,0.00058 -16.60505,0.00059c-5.535,0.00002 -11.07001,0.00002 -16.60502,0.00002c-5.34244,0 -11.08243,0.59558 -16.37888,-0.07106c-0.10214,0.4407 -0.24542,0.87181 -0.40179,1.29631l-0.03591,0.09748c0,0 -0.13666,0.37098 -0.50764,0.23432z" stroke="#001010" stroke-width="2.5"/><path d="M231.96206,512.02712c-0.37787,-0.11629 -0.26158,-0.49415 -0.26158,-0.49415l0.02197,-0.07139c0.17819,-0.57903 0.38663,-1.14882 0.60768,-1.71287c5.47188,-0.42719 11.26489,-1.6501 16.66574,-1.66514c5.5736,-0.01553 10.9805,-0.25698 16.52618,-0.8178c5.52745,-0.55898 10.9317,-1.34096 16.40154,-2.31234c5.50841,-0.97823 10.89654,-1.78328 16.47502,-2.22226c5.50788,-0.43342 11.03787,-0.74291 16.51558,-1.4666c5.48732,-0.72496 10.97465,-1.44992 16.46197,-2.17488c5.49809,-0.72638 11.03136,-1.02673 16.56239,-1.42196c5.52074,-0.3945 11.04128,-0.79135 16.56143,-1.19409c5.46513,-0.39873 11.10304,-0.44784 16.50741,-1.34895c5.45963,-0.91032 10.91927,-1.82063 16.3789,-2.73095c5.45688,-0.90981 10.8953,-1.94645 16.34044,-2.92421c5.43721,-0.97634 10.99024,-1.41908 16.4785,-2.04642c5.35159,-1.20028 10.87736,-2.10719 16.08179,-3.83931c5.2568,-1.74956 10.49492,-3.55048 15.8093,-5.1173c5.44016,-1.6039 10.23152,-3.55767 15.3101,-6.08033c5.15492,-2.56058 10.17441,-3.38495 14.71626,-7.07503c4.37367,-3.55345 8.13536,-7.2006 11.50113,-11.72945c3.27125,-4.40166 6.07317,-9.21571 8.10822,-14.30352c2.05524,-5.13826 4.12043,-10.27247 6.13729,-15.42594c2.04152,-5.21648 3.21539,-10.37205 3.21539,-15.98844c0,-5.53501 0,-11.07001 0,-16.60501c0,-5.53337 0.03017,-11.06777 -0.0262,-16.60086c-0.05524,-5.42224 -2.31376,-10.81511 -3.41247,-16.11692c-1.13464,-5.47753 -2.6777,-10.61362 -4.46719,-15.91186c-1.7668,-5.23426 -3.95341,-10.33569 -5.74865,-15.57074c-1.74601,-5.09151 -5.28899,-9.75952 -8.05213,-14.37691c-3.19828,-5.34456 -5.96694,-8.10018 -11.03829,-11.70689c-4.51083,-3.20806 -9.2079,-6.09562 -13.89792,-9.03411c-4.69293,-2.94031 -9.26598,-6.0706 -13.87342,-9.14294c-4.60714,-3.07214 -9.11487,-6.29254 -13.65144,-9.46782c-4.53443,-3.17379 -9.07327,-6.34123 -13.61287,-9.50761c-4.61746,-3.2207 -9.1219,-5.96123 -14.16196,-8.47128c-4.93434,-2.4574 -9.80405,-5.13355 -14.9503,-7.11258c-5.16618,-1.98669 -10.33234,-3.97339 -15.49852,-5.96008c-5.16586,-1.98657 -10.33911,-3.95404 -15.50964,-5.92845c-5.20139,-1.98619 -10.36658,-3.65625 -15.72644,-5.1622c-5.18709,-1.45742 -10.61275,-3.62537 -15.98931,-4.00186c-5.52148,-0.38664 -11.04297,-0.77329 -16.56445,-1.15993c-5.50752,-0.38566 -11.04938,-0.22026 -16.56969,-0.22045c-5.53525,-0.00019 -11.07045,-0.00451 -16.60569,-0.01432c-5.54991,-0.00984 -11.09164,0.10979 -16.62351,-0.35442c-5.51515,-0.46281 -11.05446,-0.81264 -16.55378,-1.43539c-5.5197,-0.62505 -11.04459,-1.08737 -16.4733,-2.27536c-5.41222,-1.18439 -10.78326,-2.361 -16.26077,-3.19828c-5.30561,-0.81101 -11.30887,-1.91349 -15.96237,-4.73424c-4.67246,-2.83225 -9.78921,-5.61463 -13.68907,-9.5033c-3.93551,-3.93283 -8.62227,-6.94015 -12.41497,-10.97139c-4.45649,-4.73678 -4.25457,-9.34358 -4.25456,-15.57865c0.00001,-5.41886 -0.67627,-11.36452 0.6475,-16.6295c1.36611,-5.43339 4.15123,-10.22934 6.65941,-15.22725c2.50027,-4.98214 5.66865,-9.57622 9.14247,-13.9117c3.3451,-4.17484 6.61999,-9.3439 10.8038,-12.68175c4.44388,-3.54533 8.85434,-6.45309 13.79828,-9.25716c4.82619,-2.73728 9.79226,-5.17216 14.75496,-7.65195c4.94696,-2.47192 10.10931,-4.56311 15.16482,-6.80505c5.05388,-2.24061 10.30016,-4.11482 15.44021,-6.15098c5.12322,-2.02949 10.60616,-3.3485 15.88097,-4.94473c5.27853,-1.59735 10.44369,-3.66485 15.63438,-5.52852c5.20682,-1.86947 10.82455,-2.5077 16.26272,-3.50106c5.43953,-0.99361 10.73567,-2.5555 16.07371,-3.99298c5.46549,-1.47181 10.80606,-1.94155 16.43619,-2.45329c5.51241,-0.50105 11.02524,-0.99747 16.53814,-1.49312c5.56523,-0.50035 11.02511,-0.63879 16.61183,-0.63872c5.53515,0.00007 11.07029,0.00356 16.60544,0.00961c5.5987,0.00612 11.03325,0.23948 16.60495,0.79266c5.54571,0.5506 10.95544,0.78568 16.52806,0.79709c5.6021,0.01147 10.92756,1.56476 16.38333,2.7901c5.3737,1.20691 10.8466,2.71014 15.94747,4.78334c5.2235,2.12305 9.84276,4.91123 14.67532,7.80503c4.84704,2.90247 9.83213,4.74967 14.85525,7.24018c4.96488,2.46394 10.2041,4.30861 15.14291,6.78776c5.00132,2.51054 10.12812,4.64388 14.09574,8.63154c5.21417,2.58085 9.66248,4.93605 13.80319,9.03751c1.26409,1.25822 4.42313,2.19933 5.23753,3.72106c0.90189,1.6852 0.04678,6.15421 0.04678,8.09371c0,0 0,0.39535 -0.39535,0.39535c-0.39536,0 -0.39536,-0.39535 -0.39536,-0.39535c0,-1.76306 0.84456,-6.22993 0.04678,-7.7206c-0.71442,-1.3349 -3.93824,-2.38986 -5.09682,-3.53239c-4.1246,-4.08549 -8.55279,-6.32515 -13.70859,-8.95748c-4.00269,-3.924 -8.9941,-6.05953 -13.98863,-8.56666c-4.93741,-2.47845 -10.17597,-4.32279 -15.13968,-6.78615c-5.03742,-2.50238 -10.04627,-4.35764 -14.90997,-7.27009c-4.79831,-2.87329 -9.38101,-5.64317 -14.56682,-7.75089c-5.06095,-2.05697 -10.4914,-3.54691 -15.823,-4.74437c-5.39766,-1.21229 -10.67054,-2.75954 -16.21168,-2.77089c-5.5976,-0.01147 -11.03395,-0.24788 -16.60456,-0.80096c-5.54658,-0.55069 -10.95421,-0.7827 -16.5277,-0.78879c-5.53487,-0.00606 -11.06971,-0.00954 -16.60458,-0.00961c-5.56349,-0.00007 -10.99903,0.13728 -16.54102,0.63555c-5.51265,0.49563 -11.02521,0.99202 -16.53737,1.49304c-5.58561,0.5077 -10.88083,0.96943 -16.30215,2.42934c-5.3591,1.44316 -10.67617,3.00976 -16.13724,4.00731c-5.3945,0.98538 -10.97296,1.61309 -16.13761,3.46742c-5.20336,1.86822 -10.38112,3.9399 -15.67254,5.54115c-5.25356,1.58979 -10.71627,2.90175 -15.81878,4.92304c-5.13002,2.03219 -10.36731,3.90142 -15.41088,6.13868c-5.04439,2.23701 -10.19586,4.32307 -15.13192,6.78954c-4.95031,2.4736 -9.9042,4.90198 -14.71831,7.63242c-4.90989,2.78476 -9.28211,5.66668 -13.69525,9.18748c-4.13472,3.29868 -7.37337,8.43141 -10.67986,12.55807c-3.43948,4.29263 -6.57716,8.83882 -9.05282,13.77193c-2.4815,4.94474 -5.24801,9.69103 -6.59928,15.06539c-1.30658,5.19662 -0.62362,11.08718 -0.62363,16.4367c-0.00001,6.03492 -0.26338,10.46307 4.03975,15.03683c3.78554,4.02362 8.46854,7.02712 12.398,10.9539c3.84144,3.84786 8.92811,6.59087 13.54002,9.38642c4.56396,2.76648 10.46832,3.83337 15.67197,4.6288c5.49414,0.83983 10.88173,2.01951 16.31032,3.20748c5.40193,1.18214 10.90065,1.64013 16.39325,2.26211c5.49171,0.62188 11.02341,0.97096 16.53093,1.43312c5.51016,0.46239 11.03058,0.34186 16.55879,0.35166c5.53478,0.00982 11.06952,0.01413 16.60432,0.01433c5.53882,0.00019 11.09889,-0.16458 16.6249,0.22237c5.52148,0.38664 11.04296,0.77329 16.56445,1.15993c5.43356,0.38048 10.90657,2.55673 16.14797,4.0294c5.38245,1.51231 10.57128,3.19018 15.79462,5.18475c5.17111,1.97463 10.34494,3.94231 15.51138,5.92911c5.16618,1.98669 10.33234,3.97339 15.49851,5.96008c5.16989,1.98812 10.06204,4.67415 15.01899,7.14281c5.07315,2.52653 9.61417,5.28878 14.26182,8.53054c4.53996,3.16664 9.07915,6.33431 13.61393,9.50835c4.5317,3.17188 9.03452,6.38891 13.6367,9.45775c4.6012,3.06818 9.16798,6.19442 13.85456,9.13075c4.70308,2.94668 9.41294,5.84277 13.93637,9.05979c5.13585,3.65258 8.01811,6.53027 11.25852,11.94523c2.79289,4.66712 6.35651,9.37937 8.12158,14.52645c1.79573,5.23647 3.98059,10.33903 5.74983,15.57421c1.79942,5.32765 3.35134,10.49632 4.49233,16.00449c1.10928,5.35748 3.37302,10.78809 3.42886,16.26925c0.0564,5.53578 0.02625,11.07287 0.02625,16.60892c0,5.53501 0,11.07001 0,16.60501c0,5.71503 -1.19237,10.96843 -3.26977,16.27661c-2.01757,5.1553 -4.08349,10.29133 -6.13946,15.43142c-2.06015,5.15055 -4.89621,10.02565 -8.20774,14.48152c-3.40502,4.58167 -7.21268,8.27677 -11.63717,11.87149c-4.59914,3.73663 -9.65323,4.58162 -14.8631,7.1695c-5.11691,2.5417 -9.9568,4.51452 -15.43825,6.1306c-5.30563,1.56424 -10.53507,3.36245 -15.78322,5.10912c-5.24178,1.74456 -10.80814,2.66732 -16.19987,3.86874c-5.48527,0.63473 -11.03519,1.06904 -16.47037,2.04501c-5.44838,0.97834 -10.89005,2.01543 -16.35015,2.92588c-5.45963,0.91032 -10.91927,1.82063 -16.3789,2.73095c-5.4288,0.90517 -11.09016,0.95709 -16.57991,1.35762c-5.52054,0.40277 -11.04147,0.79965 -16.56261,1.19418c-5.5152,0.3941 -11.03284,0.69285 -16.51518,1.41716c-5.48732,0.72496 -10.97465,1.44993 -16.46197,2.17489c-5.49156,0.72552 -11.03531,1.03645 -16.55711,1.47097c-5.55331,0.437 -10.91512,1.23868 -16.3988,2.21251c-5.48904,0.97479 -10.91339,1.75957 -16.46025,2.32052c-5.57084,0.56337 -11.0047,0.80621 -16.60353,0.82181c-5.4769,0.01526 -10.57757,2.27054 -16.19725,1.50979c-0.07211,0.44392 -0.19034,0.88024 -0.32263,1.31009l-0.02197,0.07139c0,0 -0.11629,0.37786 -0.49416,0.26158z" stroke="#001010" stroke-width="2.5"/><path d="M382.75,-69.5c0,-0.13807 0.11193,-0.25 0.25,-0.25c0.13807,0 0.25,0.11193 0.25,0.25c0,0.13807 -0.11193,0.25 -0.25,0.25c-0.13807,0 -0.25,-0.11193 -0.25,-0.25z" stroke="none" stroke-width="0.5"/><path d="M299.75,-108.5c0,-0.69035 0.55964,-1.25 1.25,-1.25c0.69036,0 1.25,0.55965 1.25,1.25c0,0.69035 -0.55964,1.25 -1.25,1.25c-0.69036,0 -1.25,-0.55965 -1.25,-1.25z" stroke="none" stroke-width="0.5"/><path d="M184.45631,44.3626c-0.90521,0.0888 -1.80577,0.28338 -2.67856,0.52092c-0.1247,0.03394 -0.26152,0.04577 -0.40287,0.04848c-0.25729,1.32873 -0.34144,2.71657 -0.24203,4.08123c0.59313,-0.91007 1.22677,-1.82897 1.87713,-2.79524l0.95302,-1.41595c0,0 0.18012,-0.26761 0.49331,-0.43944zM178.86795,53.06287c-0.2667,-0.28349 -0.4613,-0.49179 -0.53702,-0.57154c-0.19582,-1.7616 -1.43676,-7.17668 -0.33696,-8.73468c0.28982,-0.41057 0.7382,-0.62726 1.23695,-0.77938c0.17176,-0.57342 0.37801,-1.12945 0.61978,-1.66166c0.421,-0.92673 0.52831,-2.12214 1.33071,-2.74843c2.47671,-1.93313 3.826,-0.73002 6.02781,0.27754c0.38226,0.17492 4.66605,2.20165 4.83094,2.35416c0.07791,0.07206 0.55247,0.86926 1.08534,1.7846c0.13921,0.08239 0.27876,0.1686 0.41852,0.2582c0.27508,-0.12633 0.57158,-0.24 0.89281,-0.3399c1.60583,-0.4994 3.29807,-0.35483 4.749,0.28075c0.17076,0.05957 0.32398,0.13246 0.45618,0.22023c2.0431,1.0814 3.49403,3.18004 3.32458,5.81608c-0.03464,0.53892 -0.1078,1.03908 -0.21588,1.50329c0.7277,0.59811 1.32461,1.11332 1.37478,1.234c1.04257,2.50806 -1.1829,6.65641 -3.60317,7.67949c-0.39759,0.16807 -0.86714,0.28337 -1.38587,0.3588c0.0003,0.45303 -0.02457,0.78001 -0.08845,0.87988c-1.14479,1.7898 -4.10244,1.62081 -5.80165,1.71142c-3.70193,0.19741 -7.50002,-0.0898 -9.80357,-2.68021c-0.00593,-0.00091 -0.01185,-0.00183 -0.01776,-0.00276c-1.33394,0.80908 -4.41257,3.05691 -6.09238,1.4155c-0.85221,-0.83272 0.07756,-2.3853 0.22848,-3.56721c0.22301,-1.74652 0.68375,-3.26853 1.30682,-4.68819zM188.2376,59.87937c1.50616,0.34636 3.22679,0.28992 4.88118,0.20963c0.98145,-0.04763 2.34903,0.34644 3.19622,0.01278c-2.09281,-0.06781 -4.32514,-0.35178 -5.815,-0.35178c-0.51739,0 -1.3343,0.06421 -2.2624,0.12937zM200.48653,48.90823c0.08251,-0.81948 -0.11977,-1.52379 -0.5085,-2.097c-0.21536,0.37219 -0.48395,0.72791 -0.76979,1.06138c0.26582,0.2261 0.52404,0.44023 0.7733,0.63792c0.07182,0.05696 0.25435,0.20016 0.50499,0.3977zM189.74614,47.42082c-1.33375,0.54034 -2.61715,1.12505 -3.95928,1.86481c-0.55206,0.30429 -1.33969,0.31238 -1.6991,0.83025c-0.26486,0.38163 0.14286,0.92 0.16225,1.38413c0.0415,0.99341 -0.17656,2.01483 -0.21915,3.01121c1.19081,0.23677 2.50671,-0.19976 3.75557,-0.2556c2.16711,-1.42712 4.20992,-2.91384 6.15451,-4.66496c-0.40167,-0.81064 -0.83619,-1.62361 -1.31467,-2.46012c-0.59172,0.94537 -0.97822,2.05229 -1.55439,3.01259c0,0 -0.64312,1.07187 -1.71499,0.42875c-1.07187,-0.64312 -0.42875,-1.71499 -0.42875,-1.71499c0.29428,-0.49047 0.55979,-0.97156 0.818,-1.43606zM185.41722,44.31086c0.09044,0.03715 0.18412,0.08712 0.28074,0.15215c0.71114,0.47864 0.60636,1.11672 0.4703,1.47047c1.4097,-0.58897 2.90822,-1.06022 4.1499,-1.46326c-1.32686,-0.31716 -2.77998,-0.0289 -4.1554,-0.1341c-0.24792,-0.01896 -0.49659,-0.02695 -0.74553,-0.02526zM197.47183,49.66603c-0.16665,0.17042 -0.33433,0.33877 -0.50301,0.50514c0.40211,0.90865 0.77364,1.82982 1.12721,2.7863c0.66171,-0.41354 1.22245,-0.95465 1.63955,-1.66164c-0.45613,-0.25595 -0.91233,-0.51309 -1.30755,-0.82657c-0.30338,-0.24064 -0.62329,-0.512 -0.95619,-0.80322zM201.81599,52.94564c-0.73276,1.11042 -1.76572,1.89415 -2.97466,2.44793c0.04246,0.47475 0.11079,1.24356 0.17102,2.05829c0.15924,-0.00289 0.31502,-0.02758 0.46534,-0.08749c0.90365,-0.36015 3.03686,-3.1907 2.39683,-4.32051c-0.01887,-0.03331 -0.03839,-0.06604 -0.05853,-0.09821zM196.80015,57.23554c-0.11454,-0.35491 -0.23802,-0.7125 -0.3269,-1.06613c-2.55389,0.57552 -5.45397,0.56186 -7.90761,0.57644c-0.2445,0.1584 -0.49008,0.31581 -0.73671,0.47238c0.89032,0.00904 1.78096,0.03178 2.67106,0.03178c2.0955,0 4.20288,-0.04814 6.30015,-0.01446zM182.20491,42.14033c1.51517,-0.37847 3.3795,-0.58022 5.17022,-0.54763c-1.42168,-0.85298 -3.58466,-2.11653 -4.57293,-1.12208c-0.41697,0.41958 -0.41739,1.09678 -0.59729,1.66971zM181.52391,58.14252c-0.33765,-0.71325 -0.71825,-1.57937 -1.03176,-2.30779c-0.11078,0.83352 -0.2013,1.67422 -0.48976,2.45508c-0.18083,0.48951 -1.06956,0.84238 -0.84899,1.31532c0.18813,0.40339 0.75379,-0.47358 1.13243,-0.70756c0.41121,-0.2541 0.82428,-0.50518 1.23808,-0.75505zM195.78209,53.86993c-0.24195,-0.65141 -0.49164,-1.28342 -0.7538,-1.90508c-0.93015,0.80722 -1.88631,1.5682 -2.86538,2.29594c1.24034,-0.02976 2.48392,-0.12666 3.61918,-0.39086zM198.10005,45.39788c-0.17036,-0.06437 -0.34544,-0.11948 -0.5237,-0.16508c-0.27314,0.09552 -0.56928,0.34323 -0.86246,0.45959c0.21733,0.18769 0.43272,0.37595 0.64567,0.56306c0.26235,-0.26403 0.76935,-0.61565 0.74049,-0.85756z" stroke="none" stroke-width="0.5"/><path d="M129.04852,190.40637c0.33014,1.46745 0.4554,2.6286 -0.89329,4.28264c-0.62726,0.76927 -1.7355,0.96423 -2.61475,1.42482c-3.27512,1.71564 -10.38685,4.57957 -13.33593,0.81402c-0.14596,-0.18637 -1.22286,-5.04437 -1.27518,-5.47929c-0.30872,-2.56624 -0.64592,-5.21275 0.93041,-7.29104c0.10772,-1.29513 0.3977,-2.58327 0.74609,-3.83223c0.43596,-0.27501 4.3846,-2.82173 4.98005,-2.98301c3.2883,-0.89064 8.53409,0.14639 11.03484,2.93112c0.31322,-0.08173 0.61695,-0.07486 0.90157,0.09096c1.16624,0.67948 1.43681,2.35811 1.27207,4.12113c0.29844,0.90881 0.20525,1.93992 0.33711,3.44876c-0.58389,0.89204 -1.2845,1.7404 -2.08299,2.47212zM126.11968,181.30863c-0.46016,-0.37492 -0.90474,-0.64964 -1.20317,-0.74952c-1.77573,-0.59429 -3.24031,-0.80137 -4.61681,-0.69729c0.29166,0.36263 0.6748,0.90291 1.06771,1.48013c0.62773,-0.00134 1.2283,0.00074 1.78229,-0.00971c0.99864,-0.01882 1.99614,-0.10718 2.96998,-0.02362zM115.23621,186.48168c0.15901,1.48263 0.70477,2.8093 1.41955,4.20558c0.23425,0.45758 0.23055,1.10408 0.52271,1.49737c0.95949,0.00462 1.95636,-0.05812 2.04454,-0.07581c1.89864,-0.38072 5.11118,-1.54497 6.98029,-3.06659c-0.04252,-0.26343 -0.081,-0.52806 -0.12988,-0.78962c-1.94518,0.72561 -3.80231,0.5408 -6.07342,0.49739c-0.82658,-0.0158 -1.74085,0.27843 -2.47835,-0.09515c-0.69579,-0.35246 -1.63464,-1.17752 -2.28543,-2.17317zM118.78025,184.77385c-0.09342,-0.00649 -0.18685,-0.01437 -0.28025,-0.02385c-0.53887,-0.05467 -1.06695,-0.61004 -1.57151,-0.4131c-0.29826,0.11642 0.23664,0.60431 0.43226,0.85779c0.32665,0.42326 0.62118,0.95196 1.11761,1.15046c0.47188,0.18868 1.01358,-0.08313 1.52165,-0.09515c0.26367,-0.00624 0.5159,-0.00842 0.75877,-0.00859l0.0211,-0.62242c-0.29849,0.0596 -0.49714,0.09922 -0.53473,0.10673c0,0 -1.20649,0.2413 -1.46489,-0.95188zM126.24276,192.26579c-2.14523,1.08882 -5.85548,2.85339 -8.5026,2.70652c-1.41779,0.0891 -2.73924,-0.16403 -3.77569,-0.95699c0.01733,0.50566 -0.00806,1.02479 0.25711,1.4355c1.10154,1.70614 4.48277,0.35464 5.80144,0.03978c2.69835,-0.64428 5.41621,-1.22231 6.21975,-3.22482zM125.00054,185.89862c-0.37649,-0.42544 -0.80758,-0.69754 -1.27971,-0.86915c-0.1626,0.03279 -0.33131,0.06676 -0.50284,0.10125l0.02533,1.08383c0.58083,-0.04146 1.14999,-0.13057 1.75721,-0.31592zM117.46167,181.51477c0.24445,-0.02879 0.49045,-0.05276 0.73702,-0.07273c-0.25295,-0.04315 -0.50013,-0.01277 -0.73702,0.07273zM127.73778,184.92404c-0.30871,-0.33234 -0.67799,-0.58732 -1.09272,-0.7799c-0.06014,0.03046 -0.12059,0.0603 -0.18135,0.08952c0.27078,0.27885 0.52177,0.5906 0.75361,0.93786c0.20074,-0.05082 0.38384,-0.12148 0.52046,-0.24748z" stroke="none" stroke-width="0.5"/><path d="M36.98398,-15.2709c0.7709,0.98398 -0.21307,1.75488 -0.21307,1.75488l-1.55991,1.22213c-2.65153,2.06711 -6.37383,3.73847 -10.00177,5.60689c0.10003,0.16827 0.19558,0.33846 0.28436,0.51153c2.72184,5.30536 5.58797,9.52215 9.54,13.9725l1.08444,2.14397c0,0 0.55902,1.11803 -0.55902,1.67705c-1.11803,0.55902 -1.67705,-0.55902 -1.67705,-0.55902l-0.91556,-1.85603c-4.05646,-4.47462 -6.94069,-8.86273 -9.69724,-14.23744c-0.08267,-0.16118 -0.16983,-0.32053 -0.26017,-0.47856c-5.30687,2.95793 -9.86744,6.63035 -9.759,13.01301c0,0 0,1.25 -1.25,1.25c-1.25,0 -1.25,-1.25 -1.25,-1.25c0.08966,-6.73399 5.29312,-11.9234 10.84398,-15.32392c-0.33627,-0.59111 -0.62651,-1.20031 -0.8021,-1.85524c-0.40618,-1.51495 -0.0993,-3.14178 -0.32221,-4.69431c-0.57183,-3.98285 -1.13807,-7.9665 -1.70711,-11.94975c0,0 -0.17678,-1.23744 1.06066,-1.41421c1.23744,-0.17678 1.41421,1.06066 1.41421,1.06066c0.56904,3.98325 1.14076,7.96612 1.70711,11.94975c0.2071,1.45671 -0.10985,2.98301 0.26358,4.40619c0.11829,0.45083 0.30327,0.87452 0.52379,1.28396c3.3655,-1.74623 6.89559,-2.82889 9.93727,-5.22497l1.55991,-1.22213c0,0 0.98398,-0.7709 1.75488,0.21307z" stroke="none" stroke-width="0.5"/><path d="M42.75,-17.5c0,-1.25 1.25,-1.25 1.25,-1.25l1.55902,0.13197c0.83477,0.48696 2.01773,0.62587 2.5043,1.46087c0.53077,0.91086 0.12446,2.10478 0.18669,3.15716c0,3.16667 0,6.33333 0,9.5c0,0.46066 0.01846,5.14747 -0.06415,5.39528c-1.501,4.503 -4.68832,4.88 -8.68585,4.85472c-1.79498,-0.01135 -4.32289,0.38182 -5.56331,-1.59284c-0.56077,-0.89271 -0.15829,-2.10332 -0.18669,-3.15716c-0.11526,-4.27686 2.39702,-8.15857 4.10774,-12.00767c0,0 0.50767,-1.14226 1.64994,-0.63459c1.14226,0.50767 0.63459,1.64994 0.63459,1.64994c-1.60508,3.61143 -3.73873,7.0605 -3.89226,10.99233c-0.02409,0.61695 -0.44203,1.28069 -0.18669,1.84284c0.47707,1.0503 2.28314,0.41535 3.43669,0.40716c2.98587,-0.02119 5.15146,0.34276 6.31415,-3.14528c0.48543,-1.45628 -0.06415,-3.06966 -0.06415,-4.60472c0,-3.16667 0,-6.33333 0,-9.5c0.06223,-0.61428 0.48405,-1.30174 0.18669,-1.84284c-0.25524,-0.46445 -0.99714,-0.35942 -1.4957,-0.53913l-0.44098,0.13197c0,0 -1.25,0 -1.25,-1.25z" stroke="none" stroke-width="0.5"/><path d="M62.168,-28.94528c0.44528,1.168 -0.72272,1.61328 -0.72272,1.61328l-0.89623,0.34167c-0.84075,0.3087 -2.96129,0.78436 -3.38765,1.95255c-0.90749,2.48645 1.49238,6.52509 2.23388,8.77079c0.75361,2.28236 1.19769,2.80668 0.85472,5.26699c-0.07153,0.5131 -0.82452,0.97332 -0.59284,1.43669c0.19589,0.39178 0.52255,-0.70315 0.78382,-1.05472c0,0 1.11803,-0.55902 1.67705,0.55902c0.55902,1.11803 -0.55902,1.67705 -0.55902,1.67705c-1.07206,0.31509 -2.29532,1.57821 -3.21618,0.94528c-1.06858,-0.73446 -0.3785,-4.64174 -0.5767,-5.86309c-0.78217,-4.81996 -6.25975,-11.12123 -0.67797,-15.01711c0.75481,-0.52683 1.71354,-0.67296 2.57032,-1.00944l0.89623,-0.34167c0,0 1.168,-0.44528 1.61328,0.72272z" stroke="none" stroke-width="0.5"/><path d="M86.64333,-8.42826c-1.07174,0.64333 -1.71507,-0.42842 -1.71507,-0.42842l-0.21799,-0.36316c-2.1497,-3.58127 -3.68579,-7.49171 -5.81694,-11.05077c-1.42336,-2.37703 -4.01192,-4.56581 -5.4918,-7.00468c0.34655,2.07738 1.05183,3.84974 0.50596,6.07003c-0.28488,1.15875 -0.00932,2.9038 -1.08998,3.40978c-0.74288,0.34782 -4.63055,-2.13462 -5.46063,-2.63267c0,0 -1.07187,-0.64312 -0.42875,-1.71499c0.64312,-1.07187 1.71499,-0.42875 1.71499,-0.42875c0.71458,0.42875 1.49513,0.76302 2.14373,1.28624c0.40569,0.32727 0.49851,1.44707 0.97057,1.22605c0.47206,-0.22102 -0.31964,-1.00936 -0.32012,-1.5306c-0.00217,-2.36652 -0.47153,-4.25866 -0.67533,-6.72078l0.01054,-0.04657l-0.01164,0.00006l-0.01085,-2.13511c-0.00001,-0.00247 -0.00002,-0.00495 -0.00002,-0.00743c0,-0.69036 0.55964,-1.25 1.25,-1.25c0.34518,0 0.65768,0.13991 0.88388,0.36612l1.76777,1.76777l-0.20279,0.20279c5.72771,5.10762 8.39558,12.22759 12.40489,18.90685l0.21799,0.36316c0,0 0.64333,1.07174 -0.42842,1.71507z" stroke="none" stroke-width="0.5"/><path d="M54.74564,39.50325c-1.00325,0.74564 -1.7489,-0.25761 -1.7489,-0.25761l-0.03658,-0.04922c-2.5415,-3.43276 -3.92413,-7.38733 -6.0413,-11.06901c-0.76993,-1.33888 -1.73398,-2.55666 -2.57217,-3.85391c-0.37993,-0.58801 -0.72237,-1.19994 -1.1095,-1.78324c-0.15355,-0.23136 -0.51473,-0.93572 -0.51079,-0.65807c0.00743,0.52416 0.34833,0.98887 0.52249,1.48331c-0.0026,6.58748 0.60301,13.60689 -0.1946,20.14928c-0.10759,0.8825 -1.26884,5.75154 -2.02156,5.92609c-2.35763,0.54669 -3.64994,-3.50543 -4.21207,-4.80274c-1.57355,-3.63152 -3.39243,-6.85312 -5.44292,-10.21213c0.74601,3.02513 1.66269,6.01329 1.87059,9.05961c0.10645,1.55983 -0.2387,3.18835 -0.73473,4.75525l0.07738,0.01105l-0.35095,2.45668c-0.07792,0.61548 -0.6034,1.09142 -1.24004,1.09142c-0.499,0 -0.92971,-0.2924 -1.13014,-0.7152l-0.98789,-1.97578l0.02364,-0.01182l-0.06201,-0.0726c-0.5721,-1.76182 -1.54209,-2.92096 -1.6659,-4.29486c-0.39257,0.52342 -0.78513,1.04684 -1.1777,1.57026c0,0 -0.75,1 -1.75,0.25c-1,-0.75 -0.25,-1.75 -0.25,-1.75c0.5,-0.66667 1,-1.33333 1.5,-2l1.49127,-1.98836c0.22746,-0.31022 0.59457,-0.51164 1.00873,-0.51164c0.69036,0 1.25,0.55964 1.25,1.25l0,1.56324c0.39113,1.05073 0.82036,2.04841 1.2348,3.10804c0.14187,-0.79191 0.3392,-1.60554 0.26686,-2.60688c-0.35383,-4.89735 -2.51387,-9.66981 -2.8472,-14.67755l-0.15097,-2.29268c-0.00232,-0.03109 -0.00349,-0.06249 -0.00349,-0.09417c0,-0.69036 0.55964,-1.25 1.25,-1.25c0.53655,0 0.99415,0.33806 1.17141,0.8128l0.91766,2.29416l-0.12198,0.04879c2.25893,3.34863 4.36402,7.06487 6.14265,10.51895c0.0255,0.04952 1.96449,4.57401 2.00879,4.67863c0.29538,0.69761 0.61496,1.38592 0.87605,2.09707c0.15322,0.41733 0.28515,1.72021 0.36485,1.28284c0.09241,-0.50712 -0.35176,-0.99763 -0.32304,-1.51231c0.41011,-7.34905 0.70956,-14.72552 0.71249,-22.15642c0.17482,-1.17223 -0.44705,-2.83784 0.52447,-3.51669c2.53909,-1.77422 4.35507,1.9225 5.15346,3.08893c3.23622,4.7281 5.13368,10.25461 8.53986,14.81839l0.03658,0.04922c0,0 0.74564,1.00325 -0.25761,1.7489z" stroke="none" stroke-width="0.5"/><path d="M77.24532,27.60808c-0.10808,1.24532 -1.3534,1.13724 -1.3534,1.13724l-0.51166,-0.04441c-5.4849,-0.48536 -10.67031,-2.01944 -13.92615,-6.692c-0.43708,-0.62727 -0.89428,-1.16905 -1.30098,-1.68502c-0.07935,2.44974 -0.30078,4.87311 -1.1767,7.19969c-0.38047,1.01058 -0.40701,2.3101 -1.24554,2.99048c-0.70951,0.57569 -1.81724,0.22759 -2.73089,0.23595c-0.88787,0.00812 -1.93221,0.32597 -2.65716,-0.18669c-1.86755,-1.32064 -1.72558,-3.73796 -1.49379,-5.60347c0.23913,-1.92453 0.85305,-6.06215 1.7423,-7.74023c1.02976,-1.94324 3.95671,-4.03544 5.52477,-5.6035c0,0 0.88388,-0.88388 1.76777,0c0.88388,0.88388 0,1.76777 0,1.76777c-0.09215,0.09215 -0.19077,0.18677 -0.29483,0.28361c0.30688,0.16549 0.53667,0.45554 0.62167,0.80243l0.64218,2.38817l-0.06227,0.01674c1.19016,2.05501 2.50731,4.18483 3.97246,5.57692c2.78811,2.64908 7.17657,3.44791 10.83333,3.75852l0.51166,0.04441c0,0 1.24532,0.10808 1.13724,1.3534zM54.80205,18.38699c-0.72653,1.38242 -0.56494,3.07325 -0.92457,4.59299c-0.19165,0.80989 -1.53749,4.70518 -0.22032,5.45671c0.39252,0.22396 0.891,-0.19521 1.34284,-0.18669c0.43021,0.00811 0.95643,0.53154 1.26911,0.23595c0.43233,-0.40869 0.17871,-1.17907 0.3356,-1.75294c0.87112,-3.18638 1.04455,-6.15797 1.11026,-9.48398l0.02522,-1.98561c-1.18596,1.00924 -2.4024,2.10417 -2.93815,3.12357z" stroke="none" stroke-width="0.5"/><path d="M84.88388,30.38388c-0.88388,0.88388 -1.76777,0 -1.76777,0l-1.23415,-1.32487c-1.43513,-2.92659 -4.12952,-4.34052 -5.96159,-6.95851c-1.13555,-1.62268 -1.96972,-3.36095 -2.43885,-5.17338c-1.24314,-0.92866 -3.47029,-2.60957 -3.59956,-2.86811c-0.45644,-0.91287 -0.12034,-2.03846 -0.13197,-3.05902c-0.03066,-2.69176 1.09592,-6.09865 3.69098,-7.61803c0.65412,-0.38298 1.53772,0.09025 2.27183,-0.09853c2.77279,-0.71304 4.88263,-1.93168 7.84305,-0.16309c3.51011,2.09697 6.03538,7.53913 0.83943,9.56551c-2.68066,1.04543 -6.33889,-0.33711 -9.21251,0.48731c0.03804,0.76639 0.15172,1.4828 0.32717,2.15879c0.08227,0.05397 0.16245,0.10985 0.24006,0.16805c0,0 0.87719,0.65789 0.37228,1.56289c1.84485,4.09627 5.9044,6.76219 7.99576,10.87809l0.76585,0.67513c0,0 0.88388,0.88388 0,1.76777zM73.05202,13.9687c-0.02465,-0.75415 0.01492,-1.51667 0.12282,-2.2849c1.02959,-0.47041 1.98961,-1.14069 3.08877,-1.41124c2.31241,-0.56917 5.05619,0.58818 7.3411,0.04159c1.18846,-0.2843 1.76903,-1.18945 1.23251,-2.3554c-1.02862,-2.23537 -4.12485,-3.82974 -6.55003,-3.24218c-0.7244,0.1755 -1.27552,0.82482 -2,1c-0.56083,0.13561 -1.22264,-0.37666 -1.72817,-0.09853c-1.76821,0.97282 -2.28096,3.70819 -2.30902,5.38197c-0.01087,0.6484 -0.42198,1.36096 -0.13197,1.94098c0.21373,0.42746 0.54435,0.75298 0.93399,1.02771z" stroke="none" stroke-width="0.5"/><path d="M324.86628,37.40114c-0.90114,0.86628 -1.76742,-0.03486 -1.76742,-0.03486l-0.22595,-0.23504c-7.01869,-7.30112 -16.47181,-9.38124 -26.37291,-9.38124c-9.91345,0 -19.74387,-0.92717 -29.61769,-1.78813c-2.47478,-0.21579 -4.91286,-0.05822 -7.38231,-0.21187c-1.13235,-0.07046 -2.56205,0.41605 -3.38388,-0.36612c-0.76988,-0.73272 -0.50219,-2.12185 -0.33268,-3.17107c0.51341,-3.17772 4.82585,-5.32797 7.11358,-7.1052c8.59521,-5.15427 17.88336,-10.28344 27.95819,-11.84228c4.85826,-0.7517 10.44683,0.45498 15.28283,0.99232c0,0 1.24235,0.13804 1.10432,1.38039c-0.13804,1.24235 -1.38039,1.10432 -1.38039,1.10432c-4.59068,-0.51008 -10.01119,-1.73664 -14.62052,-1.00704c-9.71349,1.53752 -18.62894,6.47704 -26.93216,11.43518c-1.62621,1.2682 -4.00644,2.55464 -5.34247,4.12183c-0.36169,0.42427 -0.51475,0.98952 -0.75025,1.49486c-0.12576,0.26987 -0.61276,0.72793 -0.33268,0.82893c0.51961,0.18737 1.06593,-0.31718 1.61612,-0.36612c2.48854,-0.22135 5.12003,0.0063 7.59889,0.22127c2.26252,0.19621 4.52265,0.39661 6.78196,0.5888c-0.53736,-1.00824 0.4639,-1.62457 0.4639,-1.62457c1.41932,-0.87367 3.28266,-2.02066 4.70198,-2.89434c6.11303,-3.71615 13.16306,-3.29033 20.06657,-3.28851c10.88671,0.00287 21.67638,0.26262 32.54598,0.86907c17.42574,0.97488 35.08781,3.30509 52.2212,6.53279c8.18802,1.54251 16.35913,3.15804 24.55408,4.65745c3.92198,0.7176 8.11259,1.87208 12.12219,1.86829c2.3645,-0.00223 4.94022,-0.62711 7.28822,-0.92061c0,0 1.24035,-0.15504 1.39539,1.0853c0.15504,1.24035 -1.0853,1.39539 -1.0853,1.39539c-2.45066,0.30633 -5.12888,0.93759 -7.59595,0.93991c-4.1661,0.00393 -8.5003,-1.16367 -12.5745,-1.90912c-8.19925,-1.5002 -16.37465,-3.11651 -24.56696,-4.65984c-17.02589,-3.20745 -34.58093,-5.53 -51.89764,-6.49346c-10.8237,-0.60389 -21.5666,-0.86234 -32.40737,-0.86519c-6.34716,-0.00167 -13.15601,-0.57963 -18.7554,2.91749c-1.39761,0.86031 -2.79523,1.72062 -4.19284,2.58093c6.76682,0.55497 13.53114,0.99891 20.3356,0.99891c10.58072,0 20.6766,2.34834 28.17519,10.14868l0.22595,0.23504c0,0 0.86628,0.90114 -0.03486,1.76742z" stroke="none" stroke-width="0.5"/><path d="M140.16174,119.03862c0.46138,1.16174 -0.70036,1.62311 -0.70036,1.62311l-0.59549,0.2365c-6.97367,2.76955 -14.11026,5.04581 -21.08045,7.83389c-1.94763,0.77265 -3.7942,1.96907 -5.64462,3.20272c0.05174,0.04461 0.10266,0.08989 0.15263,0.13592l0.55349,0.50988c0,0 0.91936,0.84693 0.07243,1.76628c-0.84693,0.91936 -1.76628,0.07243 -1.76628,0.07243l-0.55349,-0.50988c-0.07905,-0.07282 -0.30212,-0.27693 -0.60456,-0.55472c-2.32785,1.50085 -4.72437,2.8285 -7.3923,3.23607c-7.21228,1.10179 -12.1137,-7.09661 -10.82549,-13.35031c0.62739,-3.04573 2.81492,-6.40063 4.08051,-9.24818c0,0 0.50767,-1.14226 1.64994,-0.63459c1.14226,0.50767 0.63459,1.64994 0.63459,1.64994c-1.19005,2.67762 -3.33494,5.89285 -3.91949,8.75182c-0.91097,4.45541 2.5091,11.30568 7.98268,10.3631c2.1062,-0.3627 4.05665,-1.32229 5.94694,-2.47448c-0.77231,-0.72399 -1.43962,-1.36615 -1.49564,-1.47542c-1.12911,-2.20237 -0.67993,-5.93859 -0.2485,-8.22432c1.53236,-8.11853 5.50703,-13.71146 10.4309,-20.17205c5.57029,-7.30876 11.85755,-13.98861 18.91967,-19.85229c1.8231,-1.51372 3.91833,-3.82128 6.01598,-4.91049c2.80642,-1.45723 6.85474,-1.95925 9.92203,-2.72622c0,0 1.21268,-0.30317 1.51585,0.90951c0.30317,1.21268 -0.90951,1.51585 -0.90951,1.51585c-2.87409,0.71838 -6.75025,1.15601 -9.3763,2.51959c-1.93874,1.00669 -3.88833,3.21802 -5.57104,4.61518c-6.91717,5.74336 -13.07203,12.28509 -18.52833,19.44427c-4.70445,6.17269 -8.45688,11.39848 -9.96398,19.12744c-0.33518,1.71891 -0.84122,4.93724 0.0179,6.61299c0.28242,0.55087 0.71391,0.98547 1.20186,1.3766c2.24183,-1.49052 4.44396,-3.05901 6.77368,-3.99782c6.97214,-2.78886 14.11079,-5.06593 21.08618,-7.83617l0.59549,-0.2365c0,0 1.16174,-0.46138 1.62311,0.70036z" stroke="none" stroke-width="0.5"/><path d="M123.34835,-10.61612c4.60569,-4.60377 9.37103,-8.69813 13.63482,-13.64887c0.47169,-1.11933 3.84833,-6.50109 1.95782,-7.11698c-1.40814,-0.45874 -2.96001,0.13691 -4.44098,0.13197c-2.6561,-0.00886 -7.9475,-0.74608 -10.04183,-2.63044c-3.06032,-2.75351 -1.14658,-7.77492 0.26748,-10.85829c0.45226,-0.98616 0.73026,-2.19975 1.61719,-2.82458c1.28683,-0.90657 6.09886,-0.18669 7.65716,-0.18669c0,0 1.25,0 1.25,1.25c0,1.25 -1.25,1.25 -1.25,1.25c-1.66667,0 -3.3353,0.08087 -5,0c-0.45138,-0.02193 -0.98038,-0.4566 -1.34284,-0.18669c-0.47052,0.35039 -0.42698,1.09317 -0.61888,1.64755c-0.60963,1.76118 -3.08379,6.40437 -0.96854,7.99746c1.92726,1.4515 6.10108,2.05012 8.43026,2.04168c0.57132,-0.00207 5.27958,-0.03338 5.55902,0.13197c4.32503,2.55917 0.40907,7.54201 -0.95097,10.6702c-4.34151,5.15767 -9.2474,9.35291 -13.99193,14.09949l-0.92615,0.92615c0.13092,0.31215 0.15897,0.73187 -0.20971,1.19782c-0.77562,0.98026 -1.75588,0.20465 -1.75588,0.20465l-1.90694,-1.69222c-1.26709,-2.86024 -3.62883,-7.31755 -4.14272,-11.23597c-0.59109,1.2294 -1.27174,2.4095 -2.02859,3.66499c-0.5176,0.85862 -0.76747,1.98327 -1.59417,2.55047c-1.64203,1.12661 -5.1651,1.09314 -6.56646,-0.53726c-0.61569,-0.71632 -0.20727,-1.87987 -0.2328,-2.82408c-0.06792,-2.51213 0.06675,-5.18818 0.60331,-7.64571c0.23615,-1.08159 0.03874,-2.44619 0.83602,-3.21426c1.02663,-0.98902 6.42039,-0.29623 7.80797,-0.29623c0,0 1.25,0 1.25,1.25c0,1.25 -1.25,1.25 -1.25,1.25c-1.66667,0 -3.33867,0.13329 -5,0c-0.40812,-0.03274 -0.93078,-0.61147 -1.19203,-0.29623c-0.36536,0.44087 0.06769,1.14764 0.01403,1.71771c-0.22845,2.42704 -0.36129,4.8461 -0.5697,7.2801c-0.03809,0.44484 -0.50472,0.96024 -0.2378,1.31814c0.37571,0.50377 2.777,0.21225 3.06234,-0.0206c1.16098,-0.94742 1.4017,-2.64981 2.15248,-3.94665c0.78171,-1.35029 1.41228,-2.8009 1.85844,-4.29599l2.01784,-3.25202c1.27673,3.15567 1.35152,5.24176 2.04588,8.42089c0.65736,3.00974 2.00169,5.85225 3.25265,8.65275z" stroke="none" stroke-width="0.5"/><path d="M177,-56.75c1.25,0 1.25,1.25 1.25,1.25v2.5c0,5.8639 0.38552,11.54016 -0.93817,17.12339l0.26222,0.03878l-0.36302,2.45444c-0.08042,0.61274 -0.60462,1.08577 -1.23931,1.08577c-0.46547,0 -0.87152,-0.25442 -1.08667,-0.63178l-1.2645,-2.12967c-2.35604,-3.97709 -5.17624,-9.23798 -6.35435,-13.72857c-0.13085,-0.49877 0.22372,-1.07491 0.01599,-1.54687c-0.17576,-0.39931 -0.06323,0.8709 -0.12331,1.30303c-0.09036,0.64993 -0.21372,1.29486 -0.32771,1.94106c-0.01011,0.0573 -0.90168,4.94401 -0.9072,4.9686c-0.79699,3.54737 -1.49462,6.78325 -3.10166,9.73788l0.41376,0.20688l-1.10592,2.21185c-0.20043,0.42281 -0.63114,0.7152 -1.13014,0.7152c-0.69036,0 -1.25,-0.55964 -1.25,-1.25c0,-0.02738 0.00088,-0.05456 0.00261,-0.08151l0.12948,-2.27946l0.00798,0.00045l-0.00613,-0.02773c0.50854,-5.01234 1.83853,-9.94903 2.89381,-14.87366c0,0 0.26191,-1.22225 1.48416,-0.96034c0.10927,0.02342 0.20668,0.05451 0.29348,0.09171c0.304,-1.74544 0.916,-4.264 2.93593,-4.19521c1.21663,0.04144 1.44577,1.96484 2.05709,3.01755c2.32267,3.99968 3.52422,8.57736 5.74823,12.64253c0.05588,-1.07467 0.37143,-2.12414 0.45673,-3.42603c0.26826,-4.09429 -0.00337,-8.30386 -0.00337,-12.40831v-2.5c0,0 0,-1.25 1.25,-1.25z" stroke="none" stroke-width="0.5"/><path d="M208.19778,-39.14249c-0.35751,1.19778 -1.5553,0.84027 -1.5553,0.84027l-2.04705,-0.69398c-0.30863,-0.23397 -4.08621,-3.08187 -4.21722,-3.25088c-0.57692,-0.74421 -0.76019,-1.72308 -1.13104,-2.58862c-0.96059,-2.24192 -2.67505,-5.15105 -3.26648,-7.8597c-1.03694,3.63904 -2.23098,7.08667 -4.1025,10.28042l0.25554,0.10952l-0.97345,2.27138c-0.18473,0.4596 -0.63461,0.78408 -1.16028,0.78408c-0.69036,0 -1.25,-0.55964 -1.25,-1.25c0,-0.00879 0.00009,-0.01755 0.00027,-0.0263l0.04398,-2.43409l0.00218,0.00004l-0.00202,-0.00789c0.0807,-2.62974 -0.57292,-8.59775 1.24017,-10.71893c0.65913,-0.77113 2.43597,-1.4192 4.16504,-1.95341l0.44024,-1.62073c0.1349,-0.54471 0.62699,-0.9485 1.2134,-0.9485c0.54733,0 1.0125,0.35177 1.18175,0.84156l0.2909,0.78205c0.08337,-0.02868 0.16193,-0.05676 0.23519,-0.08423c0,0 1.17041,-0.4389 1.60932,0.73151c0.4389,1.17041 -0.73151,1.60932 -0.73151,1.60932c-0.13464,0.05049 -0.26914,0.10138 -0.40353,0.15256c0.91276,1.95201 1.66236,3.94742 2.55155,6.06946c0.60233,1.43744 0.81225,3.09703 1.76713,4.32879c0.95487,1.23176 2.50971,1.8488 3.75169,2.79034l1.25177,0.29065c0,0 1.19778,0.35751 0.84027,1.5553zM193.31983,-52.47841c-0.51433,0.07206 -1.07049,0.0666 -1.39936,0.43242c-0.40392,0.4493 -0.19458,1.19348 -0.25153,1.79496c-0.10155,1.0725 -0.17195,2.15107 -0.22533,3.23109c0.11809,-0.26157 0.23391,-0.53323 0.34271,-0.81875c0.57865,-1.51855 1.07666,-3.07474 1.5335,-4.63972z" stroke="none" stroke-width="0.5"/><path d="M218.04006,-35.80662c-0.69338,1.04006 -1.73344,0.34669 -1.73344,0.34669l-0.91987,-0.61325c-3.69404,-2.57991 -4.37638,-7.01385 -5.87803,-11.16344c-2.61522,-7.22679 -5.50015,-14.4665 -5.0542,-22.07029l-0.30147,0.02298l-0.18897,-2.4792c-0.00308,-0.03578 -0.00465,-0.07199 -0.00465,-0.10857c0,-0.69036 0.55964,-1.25 1.25,-1.25c0.5623,0 1.03788,0.37128 1.19497,0.88206l0.78145,2.34436c0,0 0.3199,0.95971 -0.47923,1.44019c0.51748,1.93944 0.07224,4.20327 0.48911,6.31205c1.08711,5.49926 3.60838,11.13953 5.51456,16.40641c1.06606,2.9456 1.37049,5.90133 4.06321,7.58332l0.91987,0.61325c0,0 1.04006,0.69338 0.34669,1.73344z" stroke="none" stroke-width="0.5"/><path d="M251.13789,-47.98259c-0.51741,1.13789 -1.65529,0.62048 -1.65529,0.62048l-0.35171,-0.15992c-4.60837,-2.09546 -9.50595,-2.88917 -14.09547,-4.93181c-0.37817,-0.16831 -2.23657,-0.97976 -3.59144,-1.62586c-1.55413,3.88431 -3.07912,7.77672 -4.55949,11.67788c-0.56553,1.42917 -1.56853,5.48163 -4.37406,4.69033c-1.16423,-0.32837 -0.95054,-2.22947 -1.30713,-3.38538c-0.7187,-2.3297 -1.02948,-4.93293 -1.54585,-7.3199c-1.36167,-6.29445 -3.1484,-13.17722 -2.61171,-19.63383c0.05177,-0.62283 0.40466,-5.21511 0.60598,-5.5381c0.20258,-0.32502 4.16777,-2.66072 4.70516,-2.98316c0,0 1.07187,-0.64312 1.71499,0.42875c0.64312,1.07187 -0.42875,1.71499 -0.42875,1.71499c-1.26699,0.7602 -3.08822,0.90787 -3.86977,2.1618c-0.34124,0.5475 0.00854,1.29102 -0.02588,1.93524c-0.13543,2.53472 -0.43832,4.66097 -0.09993,7.19153c0.75048,5.61246 1.78496,11.10413 2.98198,16.63768c0.06093,0.28166 1.01218,4.62084 1.0248,4.91259c0.02233,0.51636 -0.52542,1.04142 -0.32228,1.51667c0.1639,0.38343 0.3287,-0.76677 0.47608,-1.15686c0.25775,-0.68223 0.49266,-1.37287 0.739,-2.0593c1.59614,-4.20624 3.23136,-8.41708 4.90147,-12.62035c-0.75065,-2.14237 -0.3827,-5.56778 -0.09258,-7.33037c1.09846,-6.67348 4.41649,-13.05595 9.21138,-17.8354l-0.18496,-0.14827l1.55646,-1.94173c0.22889,-0.29056 0.5839,-0.47712 0.98249,-0.47712c0.69036,0 1.25,0.55964 1.25,1.25c0,0.0341 -0.00137,0.06787 -0.00404,0.10128l-0.17604,2.48093l-0.06233,-0.00442l0.03075,0.20852c-3.25866,7.80842 -6.53743,15.64422 -9.70743,23.51283c0.96317,0.84853 2.58905,0.81359 3.8017,1.35595c4.58126,2.04897 9.49803,2.84125 14.11172,4.93913l0.35171,0.15992c0,0 1.13789,0.51741 0.62048,1.65529zM231.59598,-61.26183c1.97177,-4.86805 3.98816,-9.71894 6.04262,-14.53362c-1.09505,1.35324 -2.2549,2.67915 -2.97747,4.06719c-1.3893,2.66881 -2.34165,5.95645 -2.83913,8.89974c-0.06269,0.37088 -0.1506,0.92792 -0.22601,1.56669z" stroke="none" stroke-width="0.5"/><path d="M353.00669,279.55409c-0.153,-0.03162 -0.30105,-0.08532 -0.44268,-0.16718c-0.67453,-0.38986 -1.0995,-1.20142 -1.36274,-2.13004c-0.14627,1.26376 -0.54309,2.56569 -0.06957,3.71232c0.20677,0.5007 0.90218,0.60286 1.3219,0.94533c2.42084,1.97529 7.29147,1.68798 9.86548,-0.60615c1.33135,-1.18659 2.1332,-2.67064 2.60169,-4.26724c-2.25068,1.77256 -5.18269,2.89085 -7.6176,3.21043c-1.02793,0.13491 -2.12039,0.67972 -3.09351,0.32211c-0.50266,-0.18473 -0.86825,-0.5786 -1.20298,-1.01957zM367.96879,273.20673c-0.14737,3.64493 -1.07025,7.36895 -3.98632,9.96796c-3.60315,3.21138 -12.78995,4.19612 -15.11417,-1.14389c-0.40349,-0.92703 -0.09668,-2.02 -0.1183,-3.0308c-0.06757,-3.15891 -0.04112,-6.34089 0,-9.5c0.01264,-0.97145 -0.25112,-1.99699 0.07046,-2.91376c0.94509,-2.69424 4.60481,-5.88094 6.43477,-8.09014c0.3355,-0.13994 4.9075,-2.08009 5.27087,-2.09763c4.03489,-0.19476 4.49889,2.66076 6.01365,5.56091c1.34792,2.58072 2.55942,7.6755 1.64174,10.65278c-0.06214,0.20159 -0.13322,0.39981 -0.2127,0.59458zM363.17531,260.22777c-0.20889,-0.41774 -0.46781,-0.7964 -0.82542,-1.09897c-1.31825,-1.11535 -4.40287,0.92041 -5.60512,1.3751c-0.27823,0.36476 -0.61702,0.75346 -0.98946,1.15918c1.33263,-0.81639 2.99523,-1.29348 5.05734,-1.31538c0.76935,-0.00817 1.63963,-0.29596 2.36266,-0.11993zM363.16915,275.26337c1.20759,-1.04936 1.96142,-2.38189 2.345,-3.83285c-0.00313,-0.13993 -0.00708,-0.27913 -0.01174,-0.41747c-0.8546,-2.25571 -1.69777,-4.51554 -2.53101,-6.77925c-0.20297,-0.55141 -0.1182,-1.3259 -0.60436,-1.6559c-0.4043,-0.27444 -0.95496,0.22069 -1.44139,0.26724c-1.13931,0.10904 -3.12833,-0.12635 -4.19477,0.66891c-2.5189,1.87838 -2.71991,4.86464 -3.10087,7.66081c-0.07526,0.55239 -0.61578,3.51954 -0.35394,5.08743c0.40413,0.11281 0.67006,0.4208 0.67006,0.4208l0.00702,0.00813c0.10993,0.15091 0.20062,0.32732 0.28907,0.50667c0.37657,-0.127 0.76306,-0.48792 1.15515,-0.58609c2.40165,-0.60134 4.94258,-0.89865 7.37902,-1.34164c0,0 0.16883,-0.0307 0.39276,-0.00679zM350.9035,271.76827c0.21196,-2.48577 0.74392,-4.85036 1.78634,-6.77641c-0.67857,0.82392 -1.238,1.64561 -1.51031,2.42191c-0.39472,1.12527 -0.38714,2.72326 -0.27603,4.35451z" stroke="none" stroke-width="0.5"/><path d="M279.69016,265.28901c1.21099,-0.30984 1.52083,0.90115 1.52083,0.90115l0.00899,1.24178c3.61139,-1.02622 7.35383,-1.88641 10.82257,-3.34781c0.61974,-0.2611 1.3497,-0.3989 2.02958,-0.59735c-2.36711,-1.64654 -5.27903,-2.69844 -7.84191,-3.93727c-7.55865,-3.65365 -14.99749,-6.7363 -22.92495,-9.49995c-16.47912,-5.75003 -33.95078,-8.34138 -50.76605,-12.91674c-10.43841,-2.84024 -20.64853,-6.86023 -30.80401,-10.61829c-2.34205,-0.86668 -4.71166,-1.68448 -7.03384,-2.60289c-0.94329,-0.37307 -2.10354,-0.44171 -2.809,-1.17061c-0.70547,-0.7289 -0.71881,-1.89717 -1.07822,-2.84575c0,0 -0.39528,-1.18585 0.79057,-1.58114c1.18585,-0.39528 1.58114,0.79057 1.58114,0.79057c0.16764,0.63256 0.04782,1.42744 0.50292,1.89767c0.4551,0.47022 1.26048,0.35455 1.88022,0.56465c2.36355,0.80128 4.69318,1.73673 7.03384,2.60289c10.08656,3.73256 20.22529,7.72967 30.59275,10.55061c16.87447,4.59146 34.39192,7.20699 50.93264,12.96837c8.01528,2.79426 15.54764,5.91557 23.18999,9.60978c2.93124,1.41692 6.04491,2.61022 8.63215,4.50978c-0.11392,-1.06022 -0.65997,-3.26004 -0.66638,-3.28064c-1.566,-5.03495 -3.44071,-8.41678 -7.16787,-12.14394c0,0 -0.88388,-0.88388 0,-1.76777c0.88388,-0.88388 1.76777,0 1.76777,0c3.99095,3.99095 6.16219,7.77446 7.79198,13.18443c0.39361,1.30657 1.12999,4.61734 0.38745,5.85662c-0.00192,0.00321 -0.00429,0.00662 -0.00709,0.01023c0.07881,0.08476 0.15669,0.17074 0.23362,0.258l0.65501,0.75621c0,0 0.81839,0.94484 -0.12645,1.76324c-0.94484,0.81839 -1.76324,-0.12645 -1.76324,-0.12645l-0.65501,-0.75621c-0.17645,-0.20817 -0.36082,-0.40835 -0.55232,-0.60121c-1.21882,0.64406 -2.54132,1.30345 -2.83465,1.42703c-4.22601,1.78045 -8.6677,3.05647 -13.23345,3.08739l-0.99073,-2.66556c0,0 -0.30984,-1.21099 0.90115,-1.52083z" stroke="none" stroke-width="0.5"/><path d="M397.88388,408.61612c0.67945,0.67945 0.3143,1.3589 0.10904,1.63685c14.01918,0.09168 30.04905,2.20858 41.58715,-7.01426c3.43379,-2.74476 5.34241,-5.43172 7.74635,-9.1059c0.86127,-1.31637 2.067,-2.45529 2.6105,-3.93151c0.73898,-2.00717 0.60675,-5.03769 0.87668,-7.1658c1.15582,-9.11262 1.06431,-17.9994 0.27488,-27.14786c-0.69476,-8.05128 -1.80858,-16.38732 -5.21878,-23.85388c-3.63737,-7.96393 -10.11619,-14.92168 -16.31295,-20.88111c-6.30076,-6.05945 -14.77474,-10.77854 -22.84297,-14.1709c-5.57052,-2.34218 -11.13369,-3.27595 -16.3569,-6.40988c0,0 -1.07187,-0.64312 -0.42875,-1.71499c0.64312,-1.07187 1.71499,-0.42875 1.71499,-0.42875c5.09965,3.05979 10.58405,3.95518 16.03964,6.24903c8.34696,3.50956 17.08791,8.40421 23.60691,14.67355c6.41463,6.16896 13.06185,13.38097 16.84064,21.61553c3.54308,7.72091 4.72977,16.3727 5.44891,24.70647c0.80467,9.32506 0.89271,18.38825 -0.28549,27.67736c-0.29442,2.32126 -0.20587,5.5288 -1.01076,7.71498c-0.06387,0.17348 -2.67837,4.15198 -2.86454,4.43652c-2.53483,3.87424 -4.64441,6.78595 -8.27741,9.68995c-12.33428,9.85926 -29.14933,7.55793 -44.03977,7.55848l-0.00002,-0.00001l0,0.00001l-2.10122,0c0,0 0,0 0,0c-0.69036,0 -1.25,-0.55964 -1.25,-1.25c0,-0.34518 0.13991,-0.65768 0.36612,-0.88388l2,-2c0,0 0.88388,-0.88388 1.76777,0z" stroke="none" stroke-width="0.5"/><path d="M414.59691,428.59827c-1.09827,0.59691 -1.69518,-0.50136 -1.69518,-0.50136l-0.36781,-0.67674c-2.8453,-5.53293 -11.51624,-5.06598 -16.97424,-5.81241c-2.20324,-0.22734 -5.62281,-0.00818 -7.6684,-0.81347c-1.12827,-0.44417 -2.67353,-0.82041 -3.05774,-1.97048c-0.59699,-1.78699 3.3788,-6.14569 4.45796,-7.37916c3.12751,-3.57472 7.44249,-6.47317 10.07648,-10.455c2.20948,-3.3401 3.72079,-7.46228 5.51399,-11.04867c0,0 0.55902,-1.11803 1.67705,-0.55902c1.11803,0.55902 0.55902,1.67705 0.55902,1.67705c-1.83811,3.67623 -3.39438,7.89138 -5.66635,11.31201c-2.22375,3.34802 -5.73987,6.17486 -8.56559,9.01065c-1.74237,1.74857 -3.08466,3.62469 -4.63616,5.53417c-0.3263,0.40158 -1.15123,0.65757 -1.03067,1.16076c0.1105,0.46119 0.91662,0.25312 1.38586,0.32177c2.39061,0.34973 4.84812,0.47877 7.25227,0.72717c6.67371,0.91176 15.18589,0.58751 18.87307,7.1008l0.36781,0.67674c0,0 0.59691,1.09827 -0.50136,1.69518z" stroke="none" stroke-width="0.5"/><path d="M187.70374,441.54116c-2.4417,-0.08548 -5.04652,-0.16722 -7.09563,-0.85418c-3.07174,-1.02978 -5.54611,-3.43086 -6.30522,-6.35776c-0.39508,-0.23257 -0.74395,-0.50597 -0.95468,-0.9014c-1.5394,-2.88864 0.49971,-5.37032 2.97777,-6.60117c2.37869,-2.67123 6.17776,-4.15918 9.34596,-4.9923c2.00962,-0.52846 6.3385,-0.85797 8.07284,0.72226c0.26631,0.24265 1.18578,3.31355 1.60325,4.73109c0.04673,0.01993 0.09291,0.04023 0.13851,0.06089c0.48315,0.21889 0.89087,0.56128 1.28467,0.9259c1.38679,-0.05456 2.88457,-0.06505 3.22878,-0.02448c1.04992,0.12373 2.78584,-0.3486 3.10209,0.66018c0.33649,1.07335 0.14093,1.90868 -0.36501,2.56864c0.29514,0.18913 0.57468,0.5346 0.50527,1.15922c-0.05541,0.49868 -0.28874,0.77495 -0.54824,0.92701c1.15583,1.45209 1.81935,3.07856 1.11424,4.75755c-0.41741,0.99394 -1.7617,1.24521 -2.67766,1.81368c-2.59139,1.60826 -5.29708,1.6015 -8.1719,1.57407c-0.19984,0.11729 -0.41177,0.23231 -0.63651,0.34517c-1.01379,0.50906 -2.03128,1.65112 -3.12464,1.34867c-0.78027,-0.21584 -1.12162,-1.06163 -1.49389,-1.86303zM192.50138,426.54459c-0.02694,-0.10228 -0.05381,-0.20584 -0.08053,-0.31081c-0.15331,-0.60222 0.09952,-1.41069 -0.35982,-1.82922c-1.03195,-0.94026 -4.54147,-0.48979 -5.73683,-0.15681c-1.50019,0.4179 -3.17747,0.38964 -4.52137,1.1765c-0.42536,0.24905 -0.83018,0.52581 -1.21141,0.82546c1.13314,-0.00328 2.20299,0.00021 2.40858,0.00028c2.52044,0.00085 6.37951,-0.17944 9.50138,0.29459zM193.73346,432.36482c-0.9006,-0.58578 -1.22537,-1.45249 -0.3965,-2.74973c-0.02966,-0.12394 -0.06045,-0.24768 -0.09221,-0.37154c-2.34708,-0.52304 -5.83176,-0.39141 -7.81027,-0.49526c-1.84083,-0.09662 -5.2992,-0.5873 -7.05346,-0.05777c-0.02379,0.00718 -0.04724,0.01503 -0.07036,0.02349c-0.88077,1.33436 -1.38382,2.80827 -1.37858,4.21476c0.08134,0.04699 0.16567,0.09517 0.25299,0.14464c4.0996,2.80226 11.46818,0.82522 16.54838,-0.70859zM199.14882,433.57231c-0.0973,-0.00685 -0.19561,-0.01407 -0.29475,-0.02172c-1.01168,0.28253 -1.97322,0.47607 -2.60143,0.6607c0.00074,1.91944 -0.05481,3.53774 -0.73681,4.91919c1.47204,-0.11187 2.89404,-0.40322 4.36513,-1.15942c0.53048,-0.27269 1.36722,-0.16212 1.65277,-0.6858c0.53679,-0.98446 -1.14436,-2.64737 -2.3849,-3.71296zM192.52828,439.19949c0.16281,-0.08911 0.31484,-0.19302 0.44733,-0.32425c0.9151,-0.90637 0.95176,-2.50158 0.87618,-3.94704c-4.93334,1.43054 -11.00981,2.82622 -15.74178,1.29319c0.7223,0.86509 1.7975,1.59203 3.28187,2.09163c1.56147,0.52555 3.50374,0.65102 5.41937,0.71548c0.0855,-0.21952 0.25746,-0.43737 0.57211,-0.61582c1.08732,-0.61664 1.70395,0.47068 1.70395,0.47068l0.12502,0.22045c0.58436,0.02376 1.14806,0.05612 1.67761,0.10832c0.56166,-0.01233 1.10651,-0.01292 1.63833,-0.01265zM196.36915,431.04325c-0.08326,-0.08185 -0.16709,-0.16279 -0.25179,-0.24237c0.00859,0.07294 0.01674,0.14592 0.02448,0.21895c0.07512,0.00842 0.15091,0.01621 0.22731,0.02342z" stroke="none" stroke-width="0.5"/></g></g></svg>